<?xml version="1.0" encoding="UTF-8"?>
<svg id="Capa_1" data-name="Capa 1" xmlns="http://www.w3.org/2000/svg" viewBox="0 0 975 584">
  <defs>
    <style>
      .cls-1 {
        fill: #fff;
      }

      .cls-2 {
        fill: #0da9ff;
      }

      .cls-3 {
        fill: #ff9c1a;
      }

      .cls-4 {
        fill: #00a443;
      }
    </style>
  </defs>
  <rect class="cls-1" x="0" y="-.00001" width="975" height="584" rx="28.60328" ry="28.60328"/>
  <g>
    <path class="cls-3" d="m502.06849,318.94601c0,16.69366,5.46118,39.12921,23.44294,57.11097,29.03059,29.03059,68.45796,28.97993,93.58211,15.33918,30.7579-16.6995,99.93984-66.74552,28.11069-274.36213,0,97.99914-145.13574,107.96199-145.13574,201.91198Z"/>
    <path class="cls-2" d="m568.15824,202.83045c-4.76671-25.6925-12.40748-51.99463-23.85817-85.79645,0,97.99917-145.13574,107.9622-145.13574,201.91192,0,16.69369,5.46113,39.12942,23.443,57.1111,29.03055,29.03036,68.75754,28.94847,93.58205,15.33914-57.78497-61.53098-37.38511-132.75915,51.96887-188.5657Z"/>
    <path class="cls-4" d="m465.27262,202.83032c-4.76676-25.69252-12.40751-51.99436-23.85823-85.79632,0,97.99917-145.13574,107.9622-145.13574,201.91192,0,48.18973,39.03405,69.40278,39.03405,69.40278,0,0-9.73848,35.44169-3.69926,78.61727l18.61666-3.0891c-9.09699-31.66695-3.51809-66.14934-2.93442-69.53441,23.79762,9.54318,48.38784,6.71362,66.00802-2.94632-57.7852-61.53077-37.38508-132.75115,51.96892-188.56584Z"/>
  </g>
</svg>